<svg width="1024" height="1024" viewBox="0 0 1024 1024" xmlns="http://www.w3.org/2000/svg">
  <!-- Background gradient -->
  <defs>
    <radialGradient id="bgGradient" cx="50%" cy="30%" r="70%">
      <stop offset="0%" style="stop-color:#40916C"/>
      <stop offset="100%" style="stop-color:#2D5A3D"/>
    </radialGradient>
    <linearGradient id="goldGradient" x1="0%" y1="0%" x2="100%" y2="100%">
      <stop offset="0%" style="stop-color:#FFD700"/>
      <stop offset="100%" style="stop-color:#FFB300"/>
    </linearGradient>
  </defs>
  
  <!-- Background circle -->
  <circle cx="512" cy="512" r="480" fill="url(#bgGradient)" stroke="#1B4332" stroke-width="8"/>
  
  <!-- Main mosque structure -->
  <!-- Central dome -->
  <ellipse cx="512" cy="380" rx="180" ry="120" fill="#1B4332" stroke="#0F2419" stroke-width="3"/>
  
  <!-- Main building -->
  <rect x="332" y="480" width="360" height="300" fill="#1B4332" stroke="#0F2419" stroke-width="3" rx="20"/>
  
  <!-- Left minaret -->
  <rect x="280" y="350" width="40" height="350" fill="#1B4332" stroke="#0F2419" stroke-width="2" rx="20"/>
  <circle cx="300" cy="340" r="25" fill="#1B4332"/>
  <rect x="290" y="315" width="20" height="40" fill="#1B4332" rx="10"/>
  
  <!-- Right minaret -->
  <rect x="704" y="350" width="40" height="350" fill="#1B4332" stroke="#0F2419" stroke-width="2" rx="20"/>
  <circle cx="724" cy="340" r="25" fill="#1B4332"/>
  <rect x="714" y="315" width="20" height="40" fill="#1B4332" rx="10"/>
  
  <!-- Central entrance arch -->
  <path d="M 412 480 Q 412 420 512 420 Q 612 420 612 480 L 612 650 L 412 650 Z" fill="#0F2419"/>
  
  <!-- Decorative arches -->
  <path d="M 350 550 Q 350 520 380 520 Q 410 520 410 550 L 410 650 L 350 650 Z" fill="#0F2419"/>
  <path d="M 614 550 Q 614 520 644 520 Q 674 520 674 550 L 674 650 L 614 650 Z" fill="#0F2419"/>
  
  <!-- Crescent moon on dome -->
  <g transform="translate(512,280)">
    <path d="M -15 -30 Q -25 -20 -25 0 Q -25 20 -15 30 Q -5 25 0 15 Q 5 0 0 -15 Q -5 -25 -15 -30" fill="url(#goldGradient)" stroke="#FF8C00" stroke-width="2"/>
    <circle cx="8" cy="-20" r="8" fill="url(#goldGradient)" stroke="#FF8C00" stroke-width="1"/>
  </g>
  
  <!-- Islamic pattern border -->
  <circle cx="512" cy="512" r="470" fill="none" stroke="url(#goldGradient)" stroke-width="4" stroke-dasharray="20,10"/>
  
  <!-- Small decorative elements -->
  <circle cx="200" cy="200" r="8" fill="url(#goldGradient)" opacity="0.7"/>
  <circle cx="824" cy="200" r="8" fill="url(#goldGradient)" opacity="0.7"/>
  <circle cx="200" cy="824" r="8" fill="url(#goldGradient)" opacity="0.7"/>
  <circle cx="824" cy="824" r="8" fill="url(#goldGradient)" opacity="0.7"/>
</svg>